# xmcd CD database file
#
# Track frame offsets:
#	150
#	12852
#	25810
#	38845
#	51780
#	64472
#	78242
#	91262
#	103845
#	117300
#	130975
#	143817
#	156550
#	171467
#	185832
#	198147
#	212477
#	226422
#
# Disc length: 3192 seconds
#
# Revision: 0
# Processed by: cddbd v1.5.1PL0 Copyright (c) Steve Scherf et al.
# Submitted via: CDex 1.50
#
DISCID=fe0c7612
DTITLE=Big Bill Broonzy-Lonnie Johnson - Jazz and Blues # 80
DYEAR=1930
DGENRE=Jazz
TTITLE0=long tall mama
TTITLE1=How you want it done?
TTITLE2=Bull cow Blues
TTITLE3=You know I got reason
TTITLE4=Rockin' chair blues
TTITLE5=key to the highway
TTITLE6=When I been drinking
TTITLE7=I feel so good
TTITLE8=Looking Up and Down
TTITLE9=Playing with strings
TTITLE10=Away down in the Alley blues
TTITLE11=Blues in G
TTITLE12=Fou hands are better than two
TTITLE13=Woke up with the blues in my fingers
TTITLE14=Tin Can Alley blues
TTITLE15=Blue ghost blues
TTITLE16=Uncle Ned, don't use your head
TTITLE17=Go back to your no good man
EXTD=YEAR: 1930
EXTT0=
EXTT1=
EXTT2=
EXTT3=
EXTT4=
EXTT5=
EXTT6=
EXTT7=
EXTT8=
EXTT9=
EXTT10=
EXTT11=
EXTT12=
EXTT13=
EXTT14=
EXTT15=
EXTT16=
EXTT17=
PLAYORDER=
